HIERARCHY
ROOT Hips
{
	OFFSET 0.000000 0.000000 0.000000
	CHANNELS 6 Xposition Yposition Zposition Zrotation Yrotation Xrotation 
	JOINT LeftUpLeg_virtual
	{
		OFFSET 0.000000 0.000000 0.000000
		CHANNELS 3 Zrotation Yrotation Xrotation
		JOINT LeftUpLeg
		{
			OFFSET 10.205400 -3.823500 0.155100
			CHANNELS 3 Zrotation Yrotation Xrotation
			JOINT LeftLeg
			{
				OFFSET 0.708757 -12.982077 0.567790
				CHANNELS 3 Zrotation Yrotation Xrotation
				JOINT LeftFoot
				{
					OFFSET -0.708756 -10.717838 -2.184338
					CHANNELS 3 Zrotation Yrotation Xrotation
					JOINT LeftToeBase
					{
						OFFSET 0.108149 -7.191104 7.560241
						CHANNELS 3 Zrotation Yrotation Xrotation
						End Site
						{
							OFFSET 0.000000 0.000000 0.000000
						}
					}
				}
			}
		}
	}
	JOINT RightUpLeg_virtual
	{
		OFFSET 0.000000 0.000000 0.000000
		CHANNELS 3 Zrotation Yrotation Xrotation
		JOINT RightUpLeg
		{
			OFFSET -10.205400 -3.823500 0.005500
			CHANNELS 3 Zrotation Yrotation Xrotation
			JOINT RightLeg
			{
				OFFSET -0.708756 -12.982134 0.610632
				CHANNELS 3 Zrotation Yrotation Xrotation
				JOINT RightFoot
				{
					OFFSET 0.708754 -10.717769 -1.945823
					CHANNELS 3 Zrotation Yrotation Xrotation
					JOINT RightToeBase
					{
						OFFSET -0.108140 -7.191069 7.372968
						CHANNELS 3 Zrotation Yrotation Xrotation
						End Site
						{
							OFFSET 0.000000 0.000000 0.000000
						}
					}
				}
			}
		}
	}
	JOINT Spine_virtual
	{
		OFFSET 0.000000 0.000000 0.000000
		CHANNELS 3 Zrotation Yrotation Xrotation
		JOINT Spine
		{
			OFFSET 0.000000 6.876099 0.125700
			CHANNELS 3 Zrotation Yrotation Xrotation
			JOINT Spine1
			{
				OFFSET 0.000000 8.022060 0.146608
				CHANNELS 3 Zrotation Yrotation Xrotation
				JOINT Spine2
				{
					OFFSET 0.000000 9.168068 0.167552
					CHANNELS 3 Zrotation Yrotation Xrotation
					JOINT Neck_virtual
					{
						OFFSET 0.000000 0.000000 0.000000
						CHANNELS 3 Zrotation Yrotation Xrotation
						JOINT Neck
						{
							OFFSET 0.000000 10.314075 0.188496
							CHANNELS 3 Zrotation Yrotation Xrotation
							JOINT Head
							{
								OFFSET 0.000000 7.643700 -2.377400
								CHANNELS 3 Zrotation Yrotation Xrotation
								End Site
								{
									OFFSET 0.000000 0.000000 0.000000
								}
							}
						}
					}
					JOINT LeftShoulder_virtual
					{
						OFFSET 0.000000 0.000000 0.000000
						CHANNELS 3 Zrotation Yrotation Xrotation
						JOINT LeftShoulder
						{
							OFFSET 4.392200 8.824978 0.174984
							CHANNELS 3 Zrotation Yrotation Xrotation
							JOINT LeftArm
							{
								OFFSET 8.771219 -2.981674 -0.026999
								CHANNELS 3 Zrotation Yrotation Xrotation
								JOINT LeftForeArm
								{
									OFFSET 8.512804 0.000000 -0.000000
									CHANNELS 3 Zrotation Yrotation Xrotation
									JOINT LeftHand
									{
										OFFSET 18.484802 0.000000 -0.000000
										CHANNELS 3 Zrotation Yrotation Xrotation
										End Site
										{
											OFFSET 0.000000 0.000000 0.000000
										}
									}
								}
							}
						}
					}
					JOINT RightShoulder_virtual
					{
						OFFSET 0.000000 0.000000 0.000000
						CHANNELS 3 Zrotation Yrotation Xrotation
						JOINT RightShoulder
						{
							OFFSET -4.392200 8.824993 0.141379
							CHANNELS 3 Zrotation Yrotation Xrotation
							JOINT RightArm
							{
								OFFSET -8.771282 -2.981682 -0.094208
								CHANNELS 3 Zrotation Yrotation Xrotation
								JOINT RightForeArm
								{
									OFFSET -8.494598 0.000000 0.000000
									CHANNELS 3 Zrotation Yrotation Xrotation
									JOINT RightHand
									{
										OFFSET -18.483803 0.000000 0.000001
										CHANNELS 3 Zrotation Yrotation Xrotation
										End Site
										{
											OFFSET 0.000000 0.000000 0.000000
										}
									}
								}
							}
						}
					}
				}
			}
		}
	}
}
MOTION
Frames: 9
Frame Time: 0.033333
-8.003589 25.016523 50.996288 179.963245 -2.410829 -179.964611 3.610987 -7.185721 -12.632136 3.474548 17.529640 -62.581718 22.187957 8.101893 57.600112 -7.057217 -5.901297 18.226537 0.000000 0.000000 0.000000 5.182069 -2.555325 -13.945695 8.185911 0.540724 -80.262851 -9.718449 -0.143236 104.848246 -5.960777 16.805373 14.657692 0.000000 0.000000 0.000000 0.712066 -1.886316 -8.760256 1.215302 0.772980 -1.722363 -1.212453 -1.874263 11.577319 0.044162 -0.023653 0.018840 -1.341660 -0.988015 13.167538 1.569790 -4.854383 16.575039 0.000000 0.000000 0.000000 1.020419 -0.339663 9.081434 -14.025085 -10.888148 4.682967 -41.333761 -22.561250 15.480016 -1.177927 -38.757120 4.762296 0.000000 0.000000 0.000000 -3.610033 0.988897 7.999527 25.301632 13.058631 0.080068 65.911421 6.973543 15.564652 -159.032335 64.117609 -162.373254 0.000000 0.000000 0.000000 
-8.052793 25.118366 50.808350 179.988544 -2.547884 -179.901664 3.503955 -7.077989 -12.453918 3.725973 17.433083 -62.117483 22.102543 8.548261 56.366273 -6.961449 -5.931098 18.689015 0.000000 0.000000 0.000000 5.042485 -2.381021 -13.679855 8.302027 0.188225 -79.531535 -9.221626 0.142488 106.039868 -6.029447 16.940922 14.012268 0.000000 0.000000 0.000000 0.573458 -1.790859 -8.765323 1.286460 0.814578 -1.694783 -1.045131 -1.908355 11.619636 -0.011879 0.000197 0.026800 -1.199068 -1.074488 13.164904 1.726334 -4.844613 16.506704 0.000000 0.000000 0.000000 1.161053 -0.445258 9.063985 -13.793539 -10.830769 4.771446 -41.848234 -21.848909 16.180131 -1.412392 -38.993649 5.057861 0.000000 0.000000 0.000000 -3.457532 0.884377 7.967007 25.119844 12.991024 0.122087 66.076889 6.990640 15.182687 -159.018620 63.911945 -162.534815 0.000000 0.000000 0.000000 
-8.123300 25.204884 50.593960 -179.974255 -2.907112 -179.964242 3.368872 -7.178291 -12.269850 4.008364 17.232475 -61.323419 21.970489 8.857316 55.506871 -7.040214 -6.328825 18.809760 0.000000 0.000000 0.000000 4.896461 -2.442136 -13.320588 8.322647 -0.192400 -78.795917 -8.678859 0.372077 107.000186 -6.013475 16.973116 13.162628 0.000000 0.000000 0.000000 0.461882 -1.747476 -8.695691 1.324209 0.824011 -1.562322 -0.857255 -1.988788 11.627957 -0.000103 -0.009867 -0.036341 -1.125378 -1.129167 13.243137 1.917795 -4.841241 16.461938 0.000000 0.000000 0.000000 1.210782 -0.563544 9.144535 -13.597997 -10.828970 4.868892 -42.188344 -21.163785 16.795213 -1.525386 -39.124352 5.226904 0.000000 0.000000 0.000000 -3.390416 0.782233 8.002053 24.930634 12.957099 0.171422 66.316212 6.991842 14.940870 -159.156699 63.706424 -162.752685 0.000000 0.000000 0.000000 
-8.220325 25.268284 50.374702 -179.988667 -2.977605 -179.930323 3.227854 -7.033834 -12.121627 3.890718 17.182652 -60.662291 21.676085 8.689810 55.038603 -7.486034 -6.386738 18.063996 0.000000 0.000000 0.000000 4.735972 -2.253389 -13.015602 8.214720 -0.597150 -78.264085 -8.327945 0.615684 107.720348 -5.913887 17.053847 12.097533 0.000000 0.000000 0.000000 0.400743 -1.698222 -8.753516 1.469500 0.901145 -1.398423 -0.847294 -2.019869 11.732291 -0.022702 0.021780 0.014140 -1.005445 -1.284849 13.248968 2.140517 -4.874756 16.426240 0.000000 0.000000 0.000000 1.325757 -0.641565 9.110683 -13.495253 -10.795274 4.984036 -42.416250 -20.562979 16.951684 -1.775236 -39.121718 5.505897 0.000000 0.000000 0.000000 -3.265284 0.661926 7.988456 24.703800 12.994705 0.122646 66.576053 6.892145 14.810775 -159.357234 63.505309 -163.010251 0.000000 0.000000 0.000000 
-8.339824 25.301899 50.176834 -179.893905 -3.137994 -179.903344 3.263205 -7.079302 -11.943866 4.104572 16.808901 -60.005937 21.167712 8.824574 55.062991 -7.405664 -6.739876 16.622987 0.000000 0.000000 0.000000 4.749851 -2.288510 -12.790132 8.174924 -0.916418 -77.942424 -7.849619 0.758977 108.367290 -5.986355 16.892002 11.117766 0.000000 0.000000 0.000000 0.451768 -1.710167 -8.734572 1.605479 0.968933 -1.207908 -0.761013 -2.094205 11.826482 -0.082020 0.007507 0.021477 -0.945687 -1.394725 13.383535 2.404443 -4.937670 16.372191 0.000000 0.000000 0.000000 1.365570 -0.745689 9.200299 -13.462615 -10.790463 5.075268 -42.411483 -20.168919 16.814246 -2.001588 -39.034251 5.757174 0.000000 0.000000 0.000000 -3.189591 0.580336 8.070573 24.498750 13.014308 0.217741 66.741289 6.858356 14.693248 -159.387218 63.303313 -163.103333 0.000000 0.000000 0.000000 
-8.464153 25.307501 50.014374 179.950623 -3.018644 -179.942686 3.144802 -7.003599 -11.662568 4.077700 16.649587 -59.443649 20.638284 8.805307 54.624735 -7.406157 -6.875089 14.799123 0.000000 0.000000 0.000000 4.524778 -2.199879 -12.554519 8.099716 -1.131351 -77.581045 -7.343439 0.917387 108.890065 -5.999220 16.763260 9.766341 0.000000 0.000000 0.000000 0.431454 -1.637556 -8.622210 1.649370 1.105647 -0.938546 -0.753043 -2.076777 11.903305 0.017186 -0.082167 0.014142 -0.934927 -1.457989 13.541986 2.665843 -4.988192 16.231446 0.000000 0.000000 0.000000 1.346308 -0.745566 9.407002 -13.405168 -10.940533 5.158116 -42.383892 -20.063216 16.331211 -2.176642 -38.909682 5.935866 0.000000 0.000000 0.000000 -3.176626 0.514558 8.205396 24.339058 12.989412 0.189564 66.887797 6.675243 14.473526 -159.603735 63.133433 -163.367005 0.000000 0.000000 0.000000 
-8.559731 25.292490 49.915730 179.949762 -2.955397 -179.838635 3.179664 -6.909005 -11.562514 4.148151 16.423391 -59.204811 20.296023 8.870032 54.571285 -7.420513 -6.674127 13.226155 0.000000 0.000000 0.000000 4.482934 -2.200388 -12.317379 7.939659 -1.241876 -77.253647 -6.637229 1.118646 109.142837 -5.516241 17.014269 8.721490 0.000000 0.000000 0.000000 0.498539 -1.635875 -8.529340 1.712561 1.091162 -0.699090 -0.738351 -2.199342 12.053266 0.002733 0.031209 0.007908 -0.884211 -1.564892 13.702619 2.932843 -5.060121 16.084971 0.000000 0.000000 0.000000 1.352205 -0.922416 9.468601 -13.314888 -10.931326 5.295872 -42.120807 -20.108348 15.602457 -2.401075 -38.901892 6.097185 0.000000 0.000000 0.000000 -3.136552 0.419631 8.372177 24.277354 13.077760 0.154192 67.018007 6.586395 14.190521 -159.785131 63.050788 -163.622987 0.000000 0.000000 0.000000 
-8.614134 25.260288 49.888092 179.989473 -2.823807 -179.865027 3.183954 -6.652548 -11.540907 4.184524 16.436679 -59.203349 20.022387 9.087912 54.867852 -7.232771 -6.584685 12.695921 0.000000 0.000000 0.000000 4.460417 -2.137010 -11.993057 7.700585 -1.242488 -76.827826 -5.994711 1.292472 108.938942 -4.714454 17.926559 8.750557 0.000000 0.000000 0.000000 0.545325 -1.487186 -8.318335 1.765575 1.112497 -0.353865 -0.678262 -2.250979 12.207355 0.020060 0.051074 0.016345 -0.822461 -1.621567 13.811353 3.177487 -5.112408 15.884600 0.000000 0.000000 0.000000 1.369728 -1.018606 9.590456 -13.113787 -11.081292 5.377168 -41.723898 -20.248782 14.755809 -2.671002 -38.966776 6.306253 0.000000 0.000000 0.000000 -3.096192 0.310648 8.482952 24.240654 13.109232 0.141197 67.040014 6.526577 13.926462 -159.911900 63.015353 -163.838316 0.000000 0.000000 0.000000 
-8.620833 25.215740 49.922558 179.939858 -2.721084 -179.802517 3.099834 -6.367608 -11.558972 4.232584 16.437687 -59.301027 19.740871 9.476525 54.769668 -7.130195 -6.445231 12.812123 0.000000 0.000000 0.000000 4.378478 -1.983301 -11.725315 7.520088 -1.315758 -76.552965 -5.714417 1.465996 108.293906 -4.028498 18.972619 9.711711 0.000000 0.000000 0.000000 0.485145 -1.373849 -8.124215 1.740291 1.089500 0.016663 -0.631904 -2.340724 12.314151 0.013053 0.017914 0.013325 -0.756360 -1.704242 13.987592 3.392805 -5.168188 15.727320 0.000000 0.000000 0.000000 1.431888 -1.002100 9.686022 -12.822644 -11.122307 5.369079 -41.285717 -20.346432 13.885085 -3.036266 -39.130051 6.581222 0.000000 0.000000 0.000000 -2.996365 0.335063 8.711138 24.264249 13.286459 0.105811 67.026723 6.531434 13.824208 -159.899646 63.078546 -163.935045 0.000000 0.000000 0.000000 
